<svg xmlns="http://www.w3.org/2000/svg" xmlns:xlink="http://www.w3.org/1999/xlink" width="256" zoomAndPan="magnify" viewBox="0 0 192 191.999996" height="256" preserveAspectRatio="xMidYMid meet" version="1.0"><defs><g/></defs><path stroke-linecap="butt" transform="matrix(2.132577, 0, 0, 2.132577, -23.219066, 57.92889)" fill="none" stroke-linejoin="miter" d="M 16.377414 10.866042 C 16.66316 10.708516 16.91044 10.53084 17.119254 10.329353 C 17.3299 10.126034 17.496585 9.886081 17.621141 9.611325 C 17.745697 9.336569 17.83545 9.02518 17.894065 8.673492 C 17.954511 8.319974 17.983818 7.913335 17.983818 7.453578 C 17.983818 6.959018 17.950848 6.600004 17.884906 6.376536 C 17.820797 6.153068 17.710894 6.041334 17.553368 6.041334 C 17.448961 6.041334 17.353712 6.088958 17.267622 6.180543 C 17.183364 6.27396 17.143066 6.378367 17.143066 6.497428 C 17.143066 6.534062 17.144898 6.578023 17.152225 6.625647 C 17.15772 6.669608 17.16871 6.724559 17.181532 6.788669 L 15.611762 6.788669 L 15.611762 3.927547 L 22.826844 3.927547 L 22.826844 6.788669 L 21.257073 6.788669 C 21.269895 6.724559 21.280886 6.669608 21.286381 6.625647 C 21.293707 6.578023 21.295539 6.534062 21.295539 6.497428 C 21.295539 6.378367 21.255242 6.27396 21.176478 6.180543 C 21.099547 6.088958 21.009793 6.041334 20.903555 6.041334 C 20.722216 6.041334 20.59766 6.151236 20.529887 6.367377 C 20.465777 6.583518 20.434638 6.953522 20.434638 7.471895 C 20.434638 8.387747 20.559194 9.102111 20.808306 9.611325 C 21.057418 10.12237 21.475046 10.539999 22.061191 10.866042 L 22.061191 17.000419 L 16.377414 17.000419 Z M 29.309244 16.531503 C 29.08944 16.648732 28.893447 16.747644 28.721267 16.828239 C 28.550919 16.90517 28.386065 16.965617 28.223044 17.009577 C 28.060022 17.053538 27.895169 17.086509 27.730315 17.104826 C 27.567294 17.126806 27.389618 17.139628 27.193626 17.139628 C 26.658769 17.139628 26.167872 17.053538 25.724599 16.885022 C 25.281327 16.712841 24.849045 16.450908 24.427753 16.101052 C 23.920371 15.666938 23.550367 15.183369 23.314077 14.650343 C 23.077787 14.113653 22.958726 13.485379 22.958726 12.765519 C 22.958726 11.983382 23.077787 11.234215 23.314077 10.516187 C 23.550367 9.794495 23.870915 9.160726 24.275722 8.611215 C 24.680528 8.063535 25.140286 7.625758 25.653163 7.299714 C 26.169704 6.971839 26.715551 6.806986 27.290706 6.806986 C 27.537986 6.806986 27.774276 6.85461 27.997744 6.946196 C 28.221212 7.035949 28.415373 7.160505 28.576563 7.319863 C 28.739584 7.475558 28.869635 7.656897 28.964884 7.860216 C 29.063796 8.061703 29.113252 8.277844 29.113252 8.510471 C 29.113252 8.772404 29.054637 9.02518 28.935577 9.266965 C 28.822011 9.50875 28.660821 9.726722 28.457502 9.917219 C 28.256014 10.105885 28.028883 10.256085 27.772445 10.367819 C 27.517838 10.475889 27.254072 10.53084 26.979317 10.53084 C 26.82179 10.53084 26.6606 10.510692 26.490252 10.472226 C 26.373023 10.448414 26.290596 10.431928 26.24114 10.424602 C 26.197179 10.419106 26.15505 10.415443 26.118416 10.415443 C 25.90777 10.415443 25.801531 10.525345 25.801531 10.74515 C 25.801531 10.942974 25.911433 11.111491 26.131238 11.248868 C 26.354706 11.386246 26.618471 11.454019 26.920702 11.454019 C 27.298033 11.454019 27.675364 11.378919 28.056359 11.22872 C 28.435521 11.07852 28.85315 10.833072 29.309244 10.492375 Z M 26.878573 8.314478 C 26.775998 8.301657 26.669759 8.319974 26.558025 8.367598 C 26.446291 8.411559 26.343715 8.473837 26.25213 8.554432 C 26.162377 8.631363 26.083613 8.719285 26.017672 8.818197 C 25.953562 8.917109 25.920592 9.003199 25.920592 9.080131 C 25.920592 9.250479 26.024999 9.334738 26.231981 9.334738 C 26.506737 9.334738 26.741195 9.274291 26.935356 9.151567 C 27.13318 9.028843 27.232092 8.873148 27.232092 8.688146 C 27.232092 8.468342 27.114863 8.343786 26.878573 8.314478 Z M 36.284373 16.588286 C 35.866745 16.798931 35.505899 16.941804 35.198173 17.018736 C 34.892278 17.099331 34.555245 17.139628 34.188904 17.139628 C 33.560629 17.139628 32.987306 17.020568 32.470765 16.784278 C 31.957888 16.547988 31.514616 16.221945 31.140948 15.804316 C 30.767281 15.386688 30.47604 14.886632 30.265394 14.305982 C 30.058411 13.725332 29.954004 13.087899 29.954004 12.391852 C 29.954004 11.609714 30.045589 10.880696 30.226928 10.201134 C 30.41193 9.521571 30.664705 8.929931 30.983422 8.424381 C 31.305802 7.920662 31.681301 7.525014 32.111751 7.237437 C 32.542202 6.951691 33.007455 6.806986 33.505678 6.806986 C 33.778602 6.806986 34.038704 6.860105 34.284152 6.966344 C 34.533264 7.070751 34.749405 7.213624 34.930744 7.396795 C 35.115746 7.578133 35.264114 7.790611 35.375848 8.032396 C 35.487582 8.274181 35.542533 8.534283 35.542533 8.807207 C 35.542533 9.158894 35.434462 9.459293 35.218321 9.706574 C 35.000349 9.955685 34.736583 10.080241 34.423362 10.080241 C 34.17425 10.080241 33.965436 10.00331 33.796919 9.845783 C 33.628402 9.690088 33.542312 9.494096 33.542312 9.257806 C 33.542312 9.089289 33.595432 8.918941 33.70167 8.750424 C 33.802414 8.607551 33.864692 8.515966 33.883009 8.4775 C 33.90499 8.435371 33.91598 8.396905 33.91598 8.358439 C 33.91598 8.277844 33.883009 8.210071 33.815236 8.151457 C 33.752958 8.091011 33.67969 8.061703 33.600927 8.061703 C 33.419588 8.061703 33.252903 8.188091 33.102703 8.444529 C 32.952504 8.699136 32.877404 8.970229 32.877404 9.257806 C 32.877404 9.494096 32.932355 9.717564 33.040425 9.92821 C 33.152159 10.135192 33.298696 10.316531 33.481866 10.472226 C 33.666868 10.629752 33.877514 10.754308 34.117467 10.845893 C 34.359252 10.93931 34.617522 10.985103 34.892278 10.985103 C 35.102924 10.985103 35.30258 10.963122 35.491245 10.91733 C 35.681742 10.869706 35.94734 10.781784 36.284373 10.649901 Z M 37.227701 10.866042 C 37.590378 10.746981 37.841322 10.550989 37.978699 10.276233 C 38.116077 10.00331 38.18385 9.558206 38.18385 8.946416 L 38.18385 6.946196 C 38.18385 6.592677 38.138058 6.32708 38.044641 6.151236 C 37.954887 5.977224 37.793697 5.8545 37.557407 5.788559 L 37.557407 3.927547 L 40.284815 3.927547 L 40.284815 7.376646 C 40.572392 7.153178 40.816009 7.002978 41.017496 6.927879 C 41.220815 6.847284 41.466264 6.806986 41.753841 6.806986 C 42.378452 6.806986 42.843705 7.001147 43.151431 7.385805 C 43.460989 7.772294 43.635001 8.389578 43.671635 9.237657 C 43.684457 9.563701 43.713765 9.829298 43.757725 10.032617 C 43.807181 10.234104 43.878618 10.397126 43.973867 10.521682 C 44.072779 10.644406 44.200998 10.732328 44.356693 10.779952 C 44.516051 10.823913 44.721202 10.85322 44.968482 10.866042 L 44.968482 17.000419 L 43.145936 17.000419 C 42.543306 17.000419 42.098202 16.822744 41.810624 16.469225 C 41.667751 16.298876 41.572503 16.117538 41.523047 15.923377 C 41.479086 15.725553 41.457105 15.4105 41.457105 14.980049 L 41.457105 9.789 C 41.457105 9.435481 41.411313 9.179043 41.317896 9.023348 C 41.228142 8.867653 41.087101 8.78889 40.89294 8.78889 C 40.486302 8.78889 40.284815 9.102111 40.284815 9.726722 C 40.284815 10.380641 40.532095 10.759803 41.026655 10.866042 L 41.026655 17.000419 L 37.227701 17.000419 Z M 45.867849 10.866042 C 46.505282 10.655396 46.823998 10.243263 46.823998 9.631474 C 46.823998 9.382362 46.778205 9.188201 46.68662 9.052655 C 46.596867 8.915277 46.441172 8.79988 46.217704 8.706463 L 46.217704 6.946196 L 48.844368 6.946196 L 48.844368 7.33818 C 49.106301 7.127534 49.324274 6.988325 49.500118 6.916888 C 49.677793 6.84362 49.904924 6.806986 50.17968 6.806986 C 50.542357 6.806986 50.872064 6.885749 51.165137 7.041444 C 51.461873 7.198971 51.687172 7.41328 51.844699 7.688036 C 51.908808 7.805265 51.956433 7.902345 51.987572 7.975613 C 52.022374 8.045218 52.04985 8.142298 52.069998 8.266854 C 52.088315 8.39141 52.104801 8.556263 52.117623 8.759583 C 52.130445 8.96107 52.150593 9.244984 52.179901 9.611325 C 52.218366 10.067419 52.337427 10.391631 52.538915 10.58396 C 52.742234 10.770794 53.053623 10.866042 53.471252 10.866042 L 53.471252 17.000419 L 51.471031 17.000419 C 51.264049 17.000419 51.051571 16.952795 50.83543 16.855714 C 50.617457 16.756802 50.450772 16.63591 50.331711 16.493037 C 50.205324 16.346501 50.110075 16.156003 50.049629 15.923377 C 49.992846 15.687087 49.963539 15.412332 49.963539 15.100942 L 49.963539 9.554542 C 49.963539 9.030675 49.785863 8.768741 49.432345 8.768741 C 49.238184 8.768741 49.078826 8.854831 48.95427 9.023348 C 48.829714 9.191865 48.767436 9.420828 48.767436 9.706574 C 48.767436 10.049102 48.838872 10.323858 48.983577 10.534504 C 49.12645 10.743318 49.322442 10.85322 49.571554 10.866042 L 49.571554 17.000419 L 45.867849 17.000419 Z M 57.797737 6.806986 C 58.882106 6.806986 59.818106 7.427934 60.602076 8.669829 C 61.217528 9.677266 61.525254 10.911835 61.525254 12.373535 C 61.525254 13.065919 61.430006 13.703352 61.237677 14.287665 C 61.050843 14.868315 60.788909 15.366539 60.453708 15.784167 C 60.122169 16.201796 59.730184 16.533334 59.275922 16.775119 C 58.827154 17.016904 58.334426 17.139628 57.797737 17.139628 C 57.250057 17.139628 56.750002 17.020568 56.299403 16.784278 C 55.850635 16.547988 55.464146 16.214618 55.141766 15.784167 C 54.823049 15.353717 54.570274 14.842672 54.385272 14.249199 C 54.203933 13.652064 54.11418 12.994482 54.11418 12.276454 C 54.11418 11.530951 54.21126 10.829408 54.405421 10.171826 C 54.603245 9.510581 54.86701 8.931763 55.20038 8.435371 C 55.533751 7.937147 55.927567 7.541499 56.376334 7.248427 C 56.830597 6.953522 57.303177 6.806986 57.797737 6.806986 Z M 57.860015 8.472005 C 57.700656 8.472005 57.54313 8.515966 57.385603 8.602056 C 57.229908 8.684483 57.092531 8.79988 56.975302 8.946416 C 56.856241 9.089289 56.757329 9.250479 56.678566 9.424491 C 56.601634 9.600335 56.563168 9.781673 56.563168 9.966676 C 56.563168 10.148014 56.608961 10.312868 56.702378 10.463067 C 56.793963 10.613267 56.905697 10.688367 57.03758 10.688367 C 57.076045 10.688367 57.185948 10.657228 57.367286 10.593118 C 57.497337 10.550989 57.592586 10.523514 57.649369 10.510692 C 57.709815 10.49787 57.772093 10.492375 57.836203 10.492375 C 57.916798 10.492375 57.980907 10.49787 58.032195 10.510692 C 58.087146 10.523514 58.224524 10.571138 58.444328 10.649901 C 58.548735 10.675545 58.614677 10.688367 58.640321 10.688367 C 58.770372 10.688367 58.882106 10.613267 58.975522 10.463067 C 59.067108 10.312868 59.114732 10.148014 59.114732 9.966676 C 59.114732 9.792664 59.074434 9.61682 58.993839 9.435481 C 58.916908 9.252311 58.819828 9.092953 58.702599 8.955575 C 58.583538 8.818197 58.449823 8.704631 58.299624 8.611215 C 58.151256 8.519629 58.002888 8.472005 57.860015 8.472005 Z M 66.480014 10.866042 C 66.793235 10.759803 67.027693 10.638911 67.183388 10.501533 C 67.339083 10.364155 67.502105 10.146182 67.672453 9.845783 C 68.000328 9.204687 68.165181 8.484827 68.165181 7.688036 C 68.165181 7.138525 68.093745 6.720896 67.94904 6.43515 C 67.806167 6.147573 67.562551 5.91861 67.221854 5.750093 L 67.221854 3.927547 L 71.438437 3.927547 C 71.762648 3.927547 72.026414 3.929379 72.227901 3.936706 C 72.43122 3.942201 72.605232 3.958686 72.748105 3.98433 C 72.89281 4.009974 73.019197 4.046608 73.130931 4.094232 C 73.242665 4.138193 73.370884 4.200471 73.513757 4.281066 C 73.88193 4.488049 74.16218 4.762804 74.356341 5.103501 C 74.554165 5.442367 74.653077 5.819698 74.653077 6.237326 C 74.653077 6.656786 74.566987 7.010305 74.394807 7.299714 C 74.22629 7.587292 73.951534 7.862048 73.572372 8.123981 C 74.944318 9.03617 75.629375 10.360492 75.629375 12.100611 C 75.629375 12.780173 75.517641 13.434091 75.294173 14.062366 C 75.074369 14.686977 74.755652 15.229161 74.338024 15.688919 C 73.920395 16.145013 73.471628 16.478383 72.993553 16.689029 C 72.51731 16.896012 71.965967 17.000419 71.337693 17.000419 L 66.480014 17.000419 Z M 70.830311 7.453578 L 71.203978 7.219119 C 71.709529 6.893076 71.964136 6.579855 71.964136 6.275792 C 71.964136 6.132919 71.907353 6.010195 71.797451 5.907619 C 71.687548 5.803212 71.561161 5.750093 71.418288 5.750093 C 71.156354 5.750093 70.954867 5.858163 70.810162 6.076136 C 70.667289 6.288614 70.595853 6.58535 70.595853 6.966344 L 70.595853 7.592787 Z M 71.35601 9.10028 C 71.110562 9.10028 70.916401 9.20835 70.771696 9.424491 C 70.628823 9.6388 70.557387 9.930041 70.557387 10.296382 C 70.557387 10.545494 70.617833 10.746981 70.738726 10.904508 C 70.863281 11.060203 71.031798 11.138966 71.240612 11.138966 C 71.46408 11.138966 71.658241 11.030896 71.821263 10.818418 C 71.982453 10.600445 72.064879 10.342175 72.064879 10.041775 C 72.064879 9.768851 72.002601 9.543552 71.878045 9.367708 C 71.75349 9.188201 71.579478 9.10028 71.35601 9.10028 Z M 83.313374 17.000419 C 83.155847 17.064529 83.025796 17.102994 82.919557 17.113985 C 82.81515 17.13047 82.690594 17.139628 82.547721 17.139628 C 82.179549 17.139628 81.879149 17.082846 81.64286 16.971112 C 81.410233 16.859378 81.175775 16.672544 80.939485 16.41061 C 80.677552 16.672544 80.413786 16.859378 80.144526 16.971112 C 79.877097 17.082846 79.587688 17.139628 79.274466 17.139628 C 78.86966 17.139628 78.492329 17.051707 78.144305 16.875863 C 77.799945 16.696356 77.499545 16.454571 77.244938 16.148677 C 76.990331 15.842782 76.787012 15.480105 76.636813 15.062476 C 76.488444 14.641184 76.413345 14.19608 76.413345 13.727164 C 76.413345 13.558647 76.415176 13.421269 76.422503 13.31503 C 76.427998 13.210623 76.448147 13.078741 76.479286 12.923046 C 76.512257 12.767351 76.559881 12.564032 76.623991 12.31492 C 76.689932 12.065808 76.788844 11.714121 76.920727 11.258027 C 77.105729 10.565643 77.197314 10.03628 77.197314 9.669939 C 77.197314 9.395184 77.155185 9.195528 77.069095 9.070972 C 76.984836 8.946416 76.819983 8.831019 76.570871 8.726612 L 76.570871 6.946196 L 79.155406 6.946196 L 79.155406 9.827466 C 79.155406 10.193807 79.197535 10.452077 79.283625 10.602277 C 79.369715 10.752477 79.510756 10.827576 79.704917 10.827576 C 79.899077 10.827576 80.058436 10.739655 80.182991 10.563811 C 80.307547 10.386136 80.369825 10.151678 80.369825 9.865932 C 80.369825 9.212013 80.102397 8.831019 79.565707 8.726612 L 79.565707 6.946196 L 82.174054 6.946196 L 82.174054 8.984882 C 82.174054 9.217509 82.177717 9.409837 82.183212 9.563701 C 82.190539 9.7139 82.208856 9.843951 82.241827 9.955685 C 82.276629 10.065588 82.318758 10.159004 82.370046 10.237768 C 82.421334 10.314699 82.49277 10.393463 82.586187 10.472226 C 82.690594 10.578465 82.795001 10.657228 82.895745 10.712179 C 83.001984 10.763467 83.141193 10.814754 83.313374 10.866042 Z M 84.232889 10.866042 C 84.42705 10.798269 84.582745 10.719506 84.701805 10.631584 C 84.819034 10.538167 84.912451 10.420938 84.983888 10.276233 C 85.057156 10.133361 85.106612 9.957517 85.132256 9.750534 C 85.1579 9.539888 85.170722 9.277955 85.170722 8.966565 L 85.170722 7.07991 C 85.170722 6.623816 85.130424 6.312426 85.049829 6.142078 C 84.974729 5.973561 84.804381 5.849005 84.542447 5.76841 L 84.542447 3.927547 L 87.266191 3.927547 L 87.266191 8.966565 C 87.266191 10.115044 87.61971 10.746981 88.328579 10.866042 L 88.328579 17.000419 L 84.232889 17.000419 Z M 89.248095 10.866042 C 89.612604 10.772625 89.861715 10.593118 89.999093 10.323858 C 90.136471 10.056429 90.206076 9.596671 90.206076 8.946416 L 90.206076 7.103722 C 90.206076 6.656786 90.15662 6.343565 90.057708 6.162226 C 89.960628 5.979056 89.782952 5.861827 89.521019 5.806876 L 89.521019 3.927547 L 92.325357 3.927547 L 92.325357 7.103722 C 92.545162 6.999315 92.724669 6.924215 92.860215 6.880254 C 92.997593 6.830798 93.131307 6.806986 93.26319 6.806986 C 93.680818 6.806986 94.081962 6.957186 94.468451 7.257585 C 94.854941 7.557985 95.191974 7.962791 95.47772 8.472005 C 95.765298 8.98305 95.994261 9.578354 96.162777 10.257916 C 96.334957 10.937479 96.421048 11.64818 96.421048 12.391852 C 96.421048 13.100721 96.345948 13.743649 96.195748 14.324299 C 96.045548 14.90495 95.833071 15.405005 95.554652 15.822633 C 95.279896 16.240262 94.950189 16.564473 94.5637 16.793436 C 94.180874 17.024231 93.754087 17.139628 93.281507 17.139628 C 93.008583 17.139628 92.748481 17.086509 92.506696 16.98027 C 92.266743 16.875863 91.977334 16.672544 91.636637 16.373976 C 91.427822 16.659722 91.206186 16.859378 90.969896 16.971112 C 90.735438 17.082846 90.427712 17.139628 90.052213 17.139628 C 89.892854 17.139628 89.760972 17.13047 89.654733 17.113985 C 89.552158 17.102994 89.416611 17.064529 89.248095 17.000419 Z M 92.325357 10.080241 C 92.325357 10.536335 92.46823 10.765298 92.755808 10.765298 C 92.949968 10.765298 93.125812 10.651733 93.281507 10.424602 C 93.440865 10.195639 93.52146 9.937368 93.52146 9.649791 C 93.52146 9.362213 93.440865 9.113101 93.281507 8.898792 C 93.125812 8.682651 92.937147 8.572749 92.717342 8.572749 C 92.574469 8.572749 92.471894 8.629532 92.411447 8.741266 C 92.352833 8.849336 92.325357 9.04716 92.325357 9.334738 Z M 92.325357 10.080241 " stroke="#252627" stroke-width="0.490237" stroke-opacity="1" stroke-miterlimit="4"/><g fill="#a892ff" fill-opacity="1"><g transform="translate(10.369023, 94.1827)"><g><path d="M 1.34375 -13.078125 C 1.945312 -13.410156 2.472656 -13.789062 2.921875 -14.21875 C 3.367188 -14.65625 3.722656 -15.164062 3.984375 -15.75 C 4.253906 -16.34375 4.453125 -17.015625 4.578125 -17.765625 C 4.703125 -18.515625 4.765625 -19.378906 4.765625 -20.359375 C 4.765625 -21.410156 4.691406 -22.171875 4.546875 -22.640625 C 4.410156 -23.117188 4.175781 -23.359375 3.84375 -23.359375 C 3.625 -23.359375 3.421875 -23.257812 3.234375 -23.0625 C 3.054688 -22.875 2.96875 -22.65625 2.96875 -22.40625 C 2.96875 -22.320312 2.972656 -22.226562 2.984375 -22.125 C 3.003906 -22.03125 3.023438 -21.914062 3.046875 -21.78125 L -0.296875 -21.78125 L -0.296875 -27.875 L 15.09375 -27.875 L 15.09375 -21.78125 L 11.75 -21.78125 C 11.769531 -21.914062 11.785156 -22.03125 11.796875 -22.125 C 11.816406 -22.226562 11.828125 -22.320312 11.828125 -22.40625 C 11.828125 -22.65625 11.742188 -22.875 11.578125 -23.0625 C 11.410156 -23.257812 11.21875 -23.359375 11 -23.359375 C 10.601562 -23.359375 10.332031 -23.128906 10.1875 -22.671875 C 10.050781 -22.210938 9.984375 -21.425781 9.984375 -20.3125 C 9.984375 -18.363281 10.25 -16.84375 10.78125 -15.75 C 11.3125 -14.664062 12.203125 -13.773438 13.453125 -13.078125 L 13.453125 0 L 1.34375 0 Z M 1.34375 -13.078125 "/></g></g></g><g fill="#a892ff" fill-opacity="1"><g transform="translate(25.202727, 94.1827)"><g><path d="M 14.078125 -1 C 13.609375 -0.75 13.191406 -0.539062 12.828125 -0.375 C 12.460938 -0.207031 12.109375 -0.078125 11.765625 0.015625 C 11.421875 0.117188 11.070312 0.191406 10.71875 0.234375 C 10.375 0.273438 9.992188 0.296875 9.578125 0.296875 C 8.429688 0.296875 7.382812 0.113281 6.4375 -0.25 C 5.488281 -0.613281 4.566406 -1.171875 3.671875 -1.921875 C 2.585938 -2.835938 1.796875 -3.867188 1.296875 -5.015625 C 0.796875 -6.160156 0.546875 -7.5 0.546875 -9.03125 C 0.546875 -10.695312 0.796875 -12.296875 1.296875 -13.828125 C 1.796875 -15.367188 2.476562 -16.722656 3.34375 -17.890625 C 4.207031 -19.054688 5.1875 -19.988281 6.28125 -20.6875 C 7.382812 -21.382812 8.550781 -21.734375 9.78125 -21.734375 C 10.3125 -21.734375 10.8125 -21.632812 11.28125 -21.4375 C 11.757812 -21.25 12.171875 -20.984375 12.515625 -20.640625 C 12.867188 -20.304688 13.148438 -19.921875 13.359375 -19.484375 C 13.566406 -19.054688 13.671875 -18.59375 13.671875 -18.09375 C 13.671875 -17.539062 13.546875 -17.003906 13.296875 -16.484375 C 13.046875 -15.972656 12.703125 -15.515625 12.265625 -15.109375 C 11.835938 -14.703125 11.347656 -14.378906 10.796875 -14.140625 C 10.253906 -13.910156 9.691406 -13.796875 9.109375 -13.796875 C 8.773438 -13.796875 8.425781 -13.835938 8.0625 -13.921875 C 7.8125 -13.972656 7.632812 -14.003906 7.53125 -14.015625 C 7.4375 -14.035156 7.347656 -14.046875 7.265625 -14.046875 C 6.828125 -14.046875 6.609375 -13.804688 6.609375 -13.328125 C 6.609375 -12.910156 6.84375 -12.554688 7.3125 -12.265625 C 7.789062 -11.972656 8.347656 -11.828125 8.984375 -11.828125 C 9.796875 -11.828125 10.601562 -11.988281 11.40625 -12.3125 C 12.21875 -12.632812 13.109375 -13.15625 14.078125 -13.875 Z M 8.90625 -18.515625 C 8.675781 -18.546875 8.441406 -18.507812 8.203125 -18.40625 C 7.972656 -18.3125 7.757812 -18.179688 7.5625 -18.015625 C 7.363281 -17.847656 7.195312 -17.660156 7.0625 -17.453125 C 6.925781 -17.242188 6.859375 -17.054688 6.859375 -16.890625 C 6.859375 -16.523438 7.082031 -16.34375 7.53125 -16.34375 C 8.113281 -16.34375 8.613281 -16.472656 9.03125 -16.734375 C 9.445312 -17.003906 9.65625 -17.332031 9.65625 -17.71875 C 9.65625 -18.195312 9.40625 -18.460938 8.90625 -18.515625 Z M 8.90625 -18.515625 "/></g></g></g><g fill="#a892ff" fill-opacity="1"><g transform="translate(40.119996, 94.1827)"><g><path d="M 14.046875 -0.875 C 13.148438 -0.425781 12.375 -0.117188 11.71875 0.046875 C 11.0625 0.210938 10.347656 0.296875 9.578125 0.296875 C 8.234375 0.296875 7.007812 0.046875 5.90625 -0.453125 C 4.8125 -0.960938 3.863281 -1.660156 3.0625 -2.546875 C 2.269531 -3.441406 1.648438 -4.507812 1.203125 -5.75 C 0.765625 -6.988281 0.546875 -8.347656 0.546875 -9.828125 C 0.546875 -11.492188 0.738281 -13.050781 1.125 -14.5 C 1.519531 -15.945312 2.054688 -17.207031 2.734375 -18.28125 C 3.421875 -19.351562 4.222656 -20.195312 5.140625 -20.8125 C 6.054688 -21.425781 7.046875 -21.734375 8.109375 -21.734375 C 8.691406 -21.734375 9.25 -21.617188 9.78125 -21.390625 C 10.3125 -21.171875 10.769531 -20.863281 11.15625 -20.46875 C 11.550781 -20.082031 11.863281 -19.628906 12.09375 -19.109375 C 12.332031 -18.597656 12.453125 -18.050781 12.453125 -17.46875 C 12.453125 -16.71875 12.222656 -16.078125 11.765625 -15.546875 C 11.304688 -15.015625 10.742188 -14.75 10.078125 -14.75 C 9.546875 -14.75 9.097656 -14.914062 8.734375 -15.25 C 8.367188 -15.582031 8.1875 -16.003906 8.1875 -16.515625 C 8.1875 -16.867188 8.300781 -17.226562 8.53125 -17.59375 C 8.75 -17.90625 8.878906 -18.101562 8.921875 -18.1875 C 8.960938 -18.269531 8.984375 -18.351562 8.984375 -18.4375 C 8.984375 -18.601562 8.910156 -18.75 8.765625 -18.875 C 8.628906 -19 8.476562 -19.0625 8.3125 -19.0625 C 7.925781 -19.0625 7.570312 -18.785156 7.25 -18.234375 C 6.925781 -17.691406 6.765625 -17.117188 6.765625 -16.515625 C 6.765625 -16.003906 6.882812 -15.523438 7.125 -15.078125 C 7.363281 -14.640625 7.675781 -14.253906 8.0625 -13.921875 C 8.457031 -13.585938 8.910156 -13.320312 9.421875 -13.125 C 9.941406 -12.925781 10.492188 -12.828125 11.078125 -12.828125 C 11.523438 -12.828125 11.945312 -12.875 12.34375 -12.96875 C 12.75 -13.070312 13.316406 -13.265625 14.046875 -13.546875 Z M 14.046875 -0.875 "/></g></g></g><g fill="#a892ff" fill-opacity="1"><g transform="translate(55.037264, 94.1827)"><g><path d="M 1.125 -13.078125 C 1.90625 -13.328125 2.441406 -13.742188 2.734375 -14.328125 C 3.023438 -14.921875 3.171875 -15.867188 3.171875 -17.171875 L 3.171875 -21.4375 C 3.171875 -22.195312 3.070312 -22.765625 2.875 -23.140625 C 2.6875 -23.515625 2.34375 -23.769531 1.84375 -23.90625 L 1.84375 -27.875 L 7.65625 -27.875 L 7.65625 -20.515625 C 8.257812 -20.992188 8.773438 -21.316406 9.203125 -21.484375 C 9.640625 -21.648438 10.164062 -21.734375 10.78125 -21.734375 C 12.125 -21.734375 13.117188 -21.320312 13.765625 -20.5 C 14.421875 -19.675781 14.789062 -18.359375 14.875 -16.546875 C 14.90625 -15.847656 14.96875 -15.285156 15.0625 -14.859375 C 15.164062 -14.429688 15.320312 -14.082031 15.53125 -13.8125 C 15.738281 -13.550781 16.007812 -13.367188 16.34375 -13.265625 C 16.675781 -13.171875 17.109375 -13.109375 17.640625 -13.078125 L 17.640625 0 L 13.75 0 C 12.46875 0 11.519531 -0.375 10.90625 -1.125 C 10.601562 -1.488281 10.398438 -1.878906 10.296875 -2.296875 C 10.203125 -2.710938 10.15625 -3.382812 10.15625 -4.3125 L 10.15625 -15.375 C 10.15625 -16.132812 10.054688 -16.679688 9.859375 -17.015625 C 9.671875 -17.347656 9.363281 -17.515625 8.9375 -17.515625 C 8.082031 -17.515625 7.65625 -16.84375 7.65625 -15.5 C 7.65625 -14.113281 8.179688 -13.304688 9.234375 -13.078125 L 9.234375 0 L 1.125 0 Z M 1.125 -13.078125 "/></g></g></g><g fill="#a892ff" fill-opacity="1"><g transform="translate(73.464486, 94.1827)"><g><path d="M 1.125 -13.078125 C 2.488281 -13.523438 3.171875 -14.40625 3.171875 -15.71875 C 3.171875 -16.25 3.070312 -16.660156 2.875 -16.953125 C 2.6875 -17.242188 2.351562 -17.488281 1.875 -17.6875 L 1.875 -21.4375 L 7.484375 -21.4375 L 7.484375 -20.609375 C 8.035156 -21.054688 8.5 -21.351562 8.875 -21.5 C 9.257812 -21.65625 9.742188 -21.734375 10.328125 -21.734375 C 11.109375 -21.734375 11.8125 -21.566406 12.4375 -21.234375 C 13.0625 -20.898438 13.539062 -20.441406 13.875 -19.859375 C 14.007812 -19.609375 14.113281 -19.40625 14.1875 -19.25 C 14.257812 -19.09375 14.316406 -18.878906 14.359375 -18.609375 C 14.398438 -18.347656 14.429688 -18 14.453125 -17.5625 C 14.484375 -17.132812 14.53125 -16.53125 14.59375 -15.75 C 14.675781 -14.78125 14.929688 -14.09375 15.359375 -13.6875 C 15.796875 -13.28125 16.457031 -13.078125 17.34375 -13.078125 L 17.34375 0 L 13.078125 0 C 12.628906 0 12.175781 -0.101562 11.71875 -0.3125 C 11.257812 -0.519531 10.90625 -0.78125 10.65625 -1.09375 C 10.375 -1.394531 10.171875 -1.796875 10.046875 -2.296875 C 9.921875 -2.796875 9.859375 -3.378906 9.859375 -4.046875 L 9.859375 -15.890625 C 9.859375 -17.003906 9.484375 -17.5625 8.734375 -17.5625 C 8.316406 -17.5625 7.972656 -17.378906 7.703125 -17.015625 C 7.441406 -16.648438 7.3125 -16.160156 7.3125 -15.546875 C 7.3125 -14.828125 7.460938 -14.242188 7.765625 -13.796875 C 8.078125 -13.347656 8.5 -13.109375 9.03125 -13.078125 L 9.03125 0 L 1.125 0 Z M 1.125 -13.078125 "/></g></g></g><g fill="#a892ff" fill-opacity="1"><g transform="translate(91.641016, 94.1827)"><g><path d="M 8.40625 -21.734375 C 10.71875 -21.734375 12.707031 -20.410156 14.375 -17.765625 C 15.6875 -15.617188 16.34375 -12.984375 16.34375 -9.859375 C 16.34375 -8.390625 16.140625 -7.03125 15.734375 -5.78125 C 15.328125 -4.539062 14.769531 -3.472656 14.0625 -2.578125 C 13.351562 -1.691406 12.515625 -0.988281 11.546875 -0.46875 C 10.585938 0.0390625 9.539062 0.296875 8.40625 0.296875 C 7.226562 0.296875 6.160156 0.046875 5.203125 -0.453125 C 4.242188 -0.960938 3.421875 -1.675781 2.734375 -2.59375 C 2.054688 -3.507812 1.519531 -4.601562 1.125 -5.875 C 0.738281 -7.144531 0.546875 -8.546875 0.546875 -10.078125 C 0.546875 -11.660156 0.753906 -13.15625 1.171875 -14.5625 C 1.585938 -15.96875 2.148438 -17.203125 2.859375 -18.265625 C 3.566406 -19.328125 4.398438 -20.171875 5.359375 -20.796875 C 6.328125 -21.421875 7.34375 -21.734375 8.40625 -21.734375 Z M 8.53125 -18.1875 C 8.195312 -18.1875 7.859375 -18.09375 7.515625 -17.90625 C 7.179688 -17.726562 6.890625 -17.484375 6.640625 -17.171875 C 6.390625 -16.867188 6.179688 -16.53125 6.015625 -16.15625 C 5.847656 -15.78125 5.765625 -15.394531 5.765625 -15 C 5.765625 -14.613281 5.863281 -14.257812 6.0625 -13.9375 C 6.257812 -13.613281 6.492188 -13.453125 6.765625 -13.453125 C 6.847656 -13.453125 7.085938 -13.523438 7.484375 -13.671875 C 7.765625 -13.753906 7.96875 -13.804688 8.09375 -13.828125 C 8.21875 -13.859375 8.347656 -13.875 8.484375 -13.875 C 8.648438 -13.875 8.785156 -13.859375 8.890625 -13.828125 C 9.003906 -13.804688 9.300781 -13.710938 9.78125 -13.546875 C 10 -13.484375 10.140625 -13.453125 10.203125 -13.453125 C 10.472656 -13.453125 10.707031 -13.613281 10.90625 -13.9375 C 11.101562 -14.257812 11.203125 -14.613281 11.203125 -15 C 11.203125 -15.363281 11.117188 -15.738281 10.953125 -16.125 C 10.785156 -16.519531 10.578125 -16.863281 10.328125 -17.15625 C 10.078125 -17.445312 9.789062 -17.691406 9.46875 -17.890625 C 9.144531 -18.085938 8.832031 -18.1875 8.53125 -18.1875 Z M 8.53125 -18.1875 "/></g></g></g><g fill="#a892ff" fill-opacity="1"><g transform="translate(108.522204, 94.1827)"><g/></g></g><g fill="#a892ff" fill-opacity="1"><g transform="translate(117.422433, 94.1827)"><g><path d="M 1.125 -13.078125 C 1.789062 -13.304688 2.289062 -13.566406 2.625 -13.859375 C 2.96875 -14.148438 3.316406 -14.613281 3.671875 -15.25 C 4.367188 -16.613281 4.71875 -18.148438 4.71875 -19.859375 C 4.71875 -21.023438 4.5625 -21.914062 4.25 -22.53125 C 3.945312 -23.144531 3.4375 -23.628906 2.71875 -23.984375 L 2.71875 -27.875 L 11.703125 -27.875 C 12.398438 -27.875 12.960938 -27.867188 13.390625 -27.859375 C 13.828125 -27.847656 14.195312 -27.8125 14.5 -27.75 C 14.8125 -27.695312 15.082031 -27.617188 15.3125 -27.515625 C 15.550781 -27.421875 15.828125 -27.289062 16.140625 -27.125 C 16.910156 -26.675781 17.503906 -26.085938 17.921875 -25.359375 C 18.347656 -24.640625 18.5625 -23.835938 18.5625 -22.953125 C 18.5625 -22.054688 18.378906 -21.300781 18.015625 -20.6875 C 17.648438 -20.070312 17.066406 -19.488281 16.265625 -18.9375 C 19.179688 -16.988281 20.640625 -14.160156 20.640625 -10.453125 C 20.640625 -9.003906 20.40625 -7.609375 19.9375 -6.265625 C 19.46875 -4.929688 18.785156 -3.773438 17.890625 -2.796875 C 16.992188 -1.828125 16.035156 -1.117188 15.015625 -0.671875 C 14.003906 -0.222656 12.832031 0 11.5 0 L 1.125 0 Z M 10.40625 -20.359375 L 11.203125 -20.859375 C 12.285156 -21.554688 12.828125 -22.222656 12.828125 -22.859375 C 12.828125 -23.171875 12.707031 -23.4375 12.46875 -23.65625 C 12.238281 -23.875 11.96875 -23.984375 11.65625 -23.984375 C 11.101562 -23.984375 10.671875 -23.753906 10.359375 -23.296875 C 10.054688 -22.835938 9.90625 -22.207031 9.90625 -21.40625 L 9.90625 -20.0625 Z M 11.53125 -16.84375 C 11 -16.84375 10.582031 -16.613281 10.28125 -16.15625 C 9.976562 -15.695312 9.828125 -15.078125 9.828125 -14.296875 C 9.828125 -13.765625 9.957031 -13.332031 10.21875 -13 C 10.476562 -12.664062 10.832031 -12.5 11.28125 -12.5 C 11.757812 -12.5 12.171875 -12.726562 12.515625 -13.1875 C 12.867188 -13.644531 13.046875 -14.195312 13.046875 -14.84375 C 13.046875 -15.425781 12.910156 -15.90625 12.640625 -16.28125 C 12.378906 -16.65625 12.007812 -16.84375 11.53125 -16.84375 Z M 11.53125 -16.84375 "/></g></g></g><g fill="#a892ff" fill-opacity="1"><g transform="translate(138.899973, 94.1827)"><g><path d="M 15.546875 0 C 15.210938 0.132812 14.929688 0.21875 14.703125 0.25 C 14.484375 0.28125 14.222656 0.296875 13.921875 0.296875 C 13.140625 0.296875 12.5 0.175781 12 -0.0625 C 11.5 -0.300781 10.992188 -0.695312 10.484375 -1.25 C 9.929688 -0.695312 9.367188 -0.300781 8.796875 -0.0625 C 8.222656 0.175781 7.601562 0.296875 6.9375 0.296875 C 6.070312 0.296875 5.269531 0.109375 4.53125 -0.265625 C 3.789062 -0.648438 3.148438 -1.164062 2.609375 -1.8125 C 2.066406 -2.46875 1.632812 -3.238281 1.3125 -4.125 C 1 -5.019531 0.84375 -5.972656 0.84375 -6.984375 C 0.84375 -7.347656 0.847656 -7.640625 0.859375 -7.859375 C 0.867188 -8.078125 0.910156 -8.351562 0.984375 -8.6875 C 1.054688 -9.03125 1.160156 -9.460938 1.296875 -9.984375 C 1.429688 -10.515625 1.640625 -11.269531 1.921875 -12.25 C 2.316406 -13.726562 2.515625 -14.851562 2.515625 -15.625 C 2.515625 -16.21875 2.421875 -16.644531 2.234375 -16.90625 C 2.054688 -17.164062 1.703125 -17.410156 1.171875 -17.640625 L 1.171875 -21.4375 L 6.6875 -21.4375 L 6.6875 -15.296875 C 6.6875 -14.515625 6.773438 -13.960938 6.953125 -13.640625 C 7.140625 -13.328125 7.441406 -13.171875 7.859375 -13.171875 C 8.273438 -13.171875 8.613281 -13.359375 8.875 -13.734375 C 9.144531 -14.109375 9.28125 -14.601562 9.28125 -15.21875 C 9.28125 -16.601562 8.707031 -17.410156 7.5625 -17.640625 L 7.5625 -21.4375 L 13.125 -21.4375 L 13.125 -17.09375 C 13.125 -16.59375 13.128906 -16.179688 13.140625 -15.859375 C 13.160156 -15.535156 13.203125 -15.253906 13.265625 -15.015625 C 13.335938 -14.785156 13.425781 -14.585938 13.53125 -14.421875 C 13.644531 -14.253906 13.800781 -14.085938 14 -13.921875 C 14.226562 -13.691406 14.453125 -13.519531 14.671875 -13.40625 C 14.890625 -13.300781 15.179688 -13.191406 15.546875 -13.078125 Z M 15.546875 0 "/></g></g></g><g fill="#a892ff" fill-opacity="1"><g transform="translate(155.279744, 94.1827)"><g><path d="M 1.125 -13.078125 C 1.539062 -13.222656 1.875 -13.390625 2.125 -13.578125 C 2.382812 -13.773438 2.585938 -14.023438 2.734375 -14.328125 C 2.890625 -14.640625 2.992188 -15.019531 3.046875 -15.46875 C 3.109375 -15.914062 3.140625 -16.472656 3.140625 -17.140625 L 3.140625 -21.15625 C 3.140625 -22.125 3.054688 -22.789062 2.890625 -23.15625 C 2.722656 -23.519531 2.359375 -23.785156 1.796875 -23.953125 L 1.796875 -27.875 L 7.609375 -27.875 L 7.609375 -17.140625 C 7.609375 -14.679688 8.359375 -13.328125 9.859375 -13.078125 L 9.859375 0 L 1.125 0 Z M 1.125 -13.078125 "/></g></g></g><g fill="#a892ff" fill-opacity="1"><g transform="translate(165.976732, 94.1827)"><g><path d="M 1.125 -13.078125 C 1.90625 -13.273438 2.441406 -13.660156 2.734375 -14.234375 C 3.023438 -14.804688 3.171875 -15.785156 3.171875 -17.171875 L 3.171875 -21.109375 C 3.171875 -22.054688 3.066406 -22.722656 2.859375 -23.109375 C 2.648438 -23.503906 2.269531 -23.753906 1.71875 -23.859375 L 1.71875 -27.875 L 7.6875 -27.875 L 7.6875 -21.109375 C 8.164062 -21.328125 8.550781 -21.484375 8.84375 -21.578125 C 9.132812 -21.679688 9.421875 -21.734375 9.703125 -21.734375 C 10.585938 -21.734375 11.441406 -21.410156 12.265625 -20.765625 C 13.085938 -20.128906 13.804688 -19.265625 14.421875 -18.171875 C 15.035156 -17.085938 15.519531 -15.820312 15.875 -14.375 C 16.238281 -12.925781 16.421875 -11.410156 16.421875 -9.828125 C 16.421875 -8.316406 16.257812 -6.941406 15.9375 -5.703125 C 15.625 -4.460938 15.171875 -3.394531 14.578125 -2.5 C 13.992188 -1.613281 13.289062 -0.925781 12.46875 -0.4375 C 11.65625 0.0507812 10.742188 0.296875 9.734375 0.296875 C 9.148438 0.296875 8.597656 0.1875 8.078125 -0.03125 C 7.566406 -0.257812 6.953125 -0.695312 6.234375 -1.34375 C 5.785156 -0.726562 5.304688 -0.300781 4.796875 -0.0625 C 4.296875 0.175781 3.644531 0.296875 2.84375 0.296875 C 2.507812 0.296875 2.226562 0.28125 2 0.25 C 1.78125 0.21875 1.488281 0.132812 1.125 0 Z M 7.6875 -14.75 C 7.6875 -13.78125 7.992188 -13.296875 8.609375 -13.296875 C 9.023438 -13.296875 9.398438 -13.535156 9.734375 -14.015625 C 10.066406 -14.503906 10.234375 -15.054688 10.234375 -15.671875 C 10.234375 -16.285156 10.066406 -16.820312 9.734375 -17.28125 C 9.398438 -17.738281 9 -17.96875 8.53125 -17.96875 C 8.21875 -17.96875 8 -17.847656 7.875 -17.609375 C 7.75 -17.378906 7.6875 -16.957031 7.6875 -16.34375 Z M 7.6875 -14.75 "/></g></g></g><g fill="#f49ad4" fill-opacity="1"><g transform="translate(46.201039, 122.712825)"><g><path d="M 8.730469 0 L 8.730469 -4.335938 C 8.730469 -5.28125 9.921875 -5.265625 9.921875 -4.351562 L 9.921875 0 L 13.675781 0 L 13.675781 -4.503906 C 13.675781 -7.632812 11.417969 -8.835938 9.28125 -8.820312 C 8.441406 -8.804688 7.507812 -8.5 6.914062 -7.859375 C 6.226562 -8.546875 5.355469 -8.820312 4.503906 -8.820312 C 2.382812 -8.820312 0.152344 -7.707031 0.152344 -4.503906 L 0.152344 0 L 3.90625 0 L 3.90625 -4.351562 C 3.90625 -5.265625 5.082031 -5.28125 5.082031 -4.335938 L 5.082031 0 Z M 8.730469 0 "/></g></g></g><g fill="#f49ad4" fill-opacity="1"><g transform="translate(60.024643, 122.712825)"><g><path d="M 4.5625 -8.820312 C 2.121094 -8.820312 0.152344 -6.851562 0.152344 -4.410156 C 0.152344 -1.984375 2.121094 0 4.5625 0 L 5.097656 0 L 5.097656 -3.648438 L 4.5625 -3.648438 C 4.136719 -3.648438 3.800781 -4 3.800781 -4.410156 C 3.800781 -4.824219 4.136719 -5.175781 4.5625 -5.175781 C 4.976562 -5.175781 5.3125 -4.824219 5.3125 -4.410156 L 5.3125 0 L 8.972656 0 L 8.972656 -4.410156 C 8.972656 -6.851562 6.988281 -8.820312 4.5625 -8.820312 Z M 4.5625 -8.820312 "/></g></g></g><g fill="#f49ad4" fill-opacity="1"><g transform="translate(69.133567, 122.712825)"><g><path d="M 9.171875 -10.683594 L 5.417969 -10.683594 L 5.417969 -4.273438 C 5.417969 -3.847656 5.082031 -3.496094 4.640625 -3.496094 C 4.210938 -3.496094 3.875 -3.847656 3.875 -4.273438 C 3.875 -4.699219 4.210938 -5.050781 4.640625 -5.050781 L 5.203125 -5.050781 L 5.203125 -8.804688 L 4.640625 -8.804688 C 2.136719 -8.804688 0.121094 -6.777344 0.121094 -4.273438 C 0.121094 -1.769531 2.136719 0.257812 4.640625 0.257812 C 7.144531 0.257812 9.171875 -1.769531 9.171875 -4.273438 Z M 9.171875 -10.683594 "/></g></g></g><g fill="#f49ad4" fill-opacity="1"><g transform="translate(78.456107, 122.712825)"><g><path d="M 5.007812 -3.863281 L 8.089844 -3.863281 C 9.003906 -4.488281 8.945312 -6.195312 8.46875 -7.035156 C 7.617188 -8.515625 6.011719 -8.820312 4.59375 -8.820312 C 1.847656 -8.777344 0.136719 -6.824219 0.136719 -4.410156 C 0.136719 -1.984375 2.121094 0 4.546875 0 L 8.867188 0 L 8.867188 -3.664062 L 4.546875 -3.664062 C 3.464844 -3.664062 3.527344 -5.265625 4.578125 -5.234375 C 5.523438 -5.21875 5.675781 -4.226562 5.007812 -3.863281 Z M 5.007812 -3.863281 "/></g></g></g><g fill="#f49ad4" fill-opacity="1"><g transform="translate(87.458235, 122.712825)"><g/></g></g><g fill="#f49ad4" fill-opacity="1"><g transform="translate(90.555578, 122.712825)"><g><path d="M 6.5 -8.5625 L 5.296875 -4.273438 L 4.105469 -8.5625 L 0.0898438 -8.5625 L 2.914062 0 L 7.523438 0 L 8.394531 -2.488281 L 7.8125 -4.089844 L 8.027344 -4.089844 C 8.53125 -2.730469 9.035156 -1.375 9.523438 0 L 14.101562 0 L 16.925781 -8.5625 L 12.910156 -8.5625 L 11.707031 -4.273438 L 10.515625 -8.5625 Z M 6.5 -8.5625 "/></g></g></g><g fill="#f49ad4" fill-opacity="1"><g transform="translate(107.583321, 122.712825)"><g><path d="M 0.152344 -8.5625 L 0.152344 0 L 3.90625 0 L 3.90625 -8.5625 Z M 0.152344 -8.5625 "/></g></g></g><g fill="#f49ad4" fill-opacity="1"><g transform="translate(111.641911, 122.712825)"><g><path d="M 4.152344 0 L 6.5 0 L 6.5 -3.554688 L 4.089844 -3.554688 C 3.984375 -3.554688 3.890625 -3.648438 3.890625 -3.753906 L 3.890625 -5.019531 L 6.5 -5.019531 L 6.5 -8.5625 L 3.890625 -8.5625 L 3.890625 -10.699219 L 0.136719 -10.699219 L 0.136719 -3.921875 C 0.136719 -1.296875 1.785156 0 4.152344 0 Z M 4.152344 0 "/></g></g></g><g fill="#f49ad4" fill-opacity="1"><g transform="translate(118.309582, 122.712825)"><g><path d="M 4.546875 -8.5625 C 4.335938 -8.5625 4.121094 -8.546875 3.90625 -8.515625 L 3.90625 -10.699219 L 0.152344 -10.699219 L 0.152344 0 L 3.90625 0 L 3.90625 -4.242188 C 3.90625 -5.34375 5.265625 -5.21875 5.265625 -4.242188 L 5.265625 0 L 8.988281 0 L 8.988281 -4.242188 C 8.988281 -7.296875 6.898438 -8.5625 4.546875 -8.5625 Z M 4.546875 -8.5625 "/></g></g></g><g fill="#f49ad4" fill-opacity="1"><g transform="translate(127.433773, 122.712825)"><g/></g></g><g fill="#f49ad4" fill-opacity="1"><g transform="translate(130.531116, 122.712825)"><g><path d="M 7.707031 -9.707031 C 7.691406 -9.660156 7.675781 -9.601562 7.632812 -9.601562 C 7.585938 -9.601562 7.570312 -9.660156 7.554688 -9.707031 C 7.097656 -11.402344 5.832031 -12.148438 4.394531 -12.148438 C 2.65625 -12.148438 1.207031 -10.546875 1.207031 -8.46875 C 1.207031 -6.226562 3.023438 -4.59375 4.167969 -3.496094 C 5.554688 -2.167969 7.035156 -0.351562 7.601562 0.566406 C 7.617188 0.59375 7.648438 0.59375 7.660156 0.566406 C 8.226562 -0.351562 9.707031 -2.167969 11.097656 -3.496094 C 12.242188 -4.59375 14.058594 -6.210938 14.058594 -8.46875 C 14.058594 -10.546875 12.605469 -12.148438 10.867188 -12.148438 C 9.433594 -12.148438 8.148438 -11.402344 7.707031 -9.707031 Z M 7.707031 -9.707031 "/></g></g></g></svg>